<svg width="114" height="114" viewBox="0 0 114 114" fill="none" xmlns="http://www.w3.org/2000/svg">
    <circle opacity="0.1" cx="56.6169" cy="56.7961" r="56.5" fill="#00A55B"/>
    <path d="M45.3419 51.5711L41.4919 55.4211L53.8669 67.7961L81.3669 40.2961L77.5169 36.4461L53.8669 60.0961L45.3419 51.5711ZM78.6169 56.7961C78.6169 68.8961 68.7169 78.7961 56.6169 78.7961C44.5169 78.7961 34.6169 68.8961 34.6169 56.7961C34.6169 44.6961 44.5169 34.7961 56.6169 34.7961C58.8169 34.7961 60.7419 35.0711 62.6669 35.6211L67.0671 31.2211C63.7669 30.1211 60.1919 29.2961 56.6169 29.2961C41.4919 29.2961 29.1169 41.6711 29.1169 56.7961C29.1169 71.9211 41.4919 84.2961 56.6169 84.2961C71.7419 84.2961 84.1169 71.9211 84.1169 56.7961H78.6169Z" fill="#00A55B"/>
</svg>
